# xmcd
# 
# Track frame offsets:
#     150
#     15255
#     34802
#     51273
#     67142
#     81221
#     98456
#     118295
#     136067
#     158958
# 
# Disc length: 2378
# 
# Revision: 1
# Processed by: cddbd v1.5.2PL0 Copyright (c) Steve Scherf et al.
# Submitted via: fre:ac v1.0.31
# 
DISCID=7d09480a
DTITLE=Various Artist - ボカロで覚える 中学数学 (MUSIC STUDY PROJECT)
DYEAR=2017
DGENRE=
TTITLE0=れるりり - 一発即答☆解ガール ※「一触即発☆禅ガール」替え歌
TTITLE1=koyori(電ポルP) - 二人の恋愛関数
TTITLE2=ナユタン星人 - パラレリズム恋心
TTITLE3=Last Note. - グラフィックマジック
TTITLE4=かいりきベア - ホンモノ証明書
TTITLE5=40mP - 恋愛確率論
TTITLE6=トラボルタ - 不思議なルート
TTITLE7=とあ - 僕らの事情
TTITLE8=家の裏でマンボウが死んでるP - 色恋沙汰は全て作図で解決可能であることの証明
TTITLE9=れるりり - 解の公式おぼえMATH!
EXTD=
EXTT0=
EXTT1=
EXTT2=
EXTT3=
EXTT4=
EXTT5=
EXTT6=
EXTT7=
EXTT8=
EXTT9=
PLAYORDER=
